<?xml version="1.0" encoding="UTF-8" standalone="no"?>
<!-- Created with Inkscape (http://www.inkscape.org/) -->

<svg
   xmlns:dc="http://purl.org/dc/elements/1.1/"
   xmlns:cc="http://creativecommons.org/ns#"
   xmlns:rdf="http://www.w3.org/1999/02/22-rdf-syntax-ns#"
   xmlns:svg="http://www.w3.org/2000/svg"
   xmlns="http://www.w3.org/2000/svg"
   xmlns:xlink="http://www.w3.org/1999/xlink"
   xmlns:sodipodi="http://sodipodi.sourceforge.net/DTD/sodipodi-0.dtd"
   xmlns:inkscape="http://www.inkscape.org/namespaces/inkscape"
   id="svg3215"
   height="24"
   width="24"
   version="1.0"
   inkscape:version="0.48.4 r9939"
   sodipodi:docname="sync-client-idle.svg">
  <defs
     id="defs8" />
  <sodipodi:namedview
     pagecolor="#ffffff"
     bordercolor="#666666"
     borderopacity="1"
     objecttolerance="10"
     gridtolerance="10"
     guidetolerance="10"
     inkscape:pageopacity="0"
     inkscape:pageshadow="2"
     inkscape:window-width="1185"
     inkscape:window-height="970"
     id="namedview6"
     showgrid="false"
     inkscape:zoom="27.812867"
     inkscape:cx="11.130312"
     inkscape:cy="6.2543896"
     inkscape:window-x="65"
     inkscape:window-y="24"
     inkscape:window-maximized="0"
     inkscape:current-layer="svg3215" />
  <metadata
     id="metadata8">
    <rdf:RDF>
      <cc:Work
         rdf:about="">
        <dc:format>image/svg+xml</dc:format>
        <dc:type
           rdf:resource="http://purl.org/dc/dcmitype/StillImage" />
        <dc:title></dc:title>
      </cc:Work>
    </rdf:RDF>
  </metadata>
  <path
     id="rect3193-5"
     style="opacity:.3;fill-rule:evenodd;fill:#fff"
     d="m13.5 6c-1.6895 1e-7 -3.1368 1.0625-3.9062 2.5938-0.4333-0.3605-0.9866-0.5938-1.5938-0.5938-1.38 1e-7 -2.5 1.12-2.5 2.5 0 0.30993 0.05301 0.60104 0.15625 0.875-1.5695 0.701-2.6562 2.289-2.6562 4.125 0 2.493 2.007 4.5 4.5 4.5h9c2.493 0 4.5-2.007 4.5-4.5 0-1.9747-1.2687-3.641-3.0312-4.25 0.0039-0.08543 0.03125-0.1635 0.03125-0.25 0-2.76-2.016-5-4.5-5z" />
  <path
     id="rect3193"
     style="fill:#ffffff;fill-rule:evenodd"
     d="m 13.931455,6.0786375 c -2.053972,1e-7 -3.813494,1.2917105 -4.7488747,3.153354 -0.526775,-0.4382698 -1.1994368,-0.721899 -1.9376265,-0.721899 -1.677704,0 -3.0393188,1.3616148 -3.0393188,3.0393185 0,0.376754 0.064434,0.730652 0.1898967,1.063761 -1.9080843,0.852225 -3.2292154,2.782801 -3.2292154,5.014876 0,3.030809 2.4399651,5.470774 5.4707737,5.470774 h 10.941547 c 3.030809,0 5.470774,-2.439965 5.470774,-5.470774 0,-2.401062 -1.542758,-4.426464 -3.68487,-5.166842 0.0049,-0.103337 0.03769,-0.198163 0.03769,-0.303932 -3e-6,-3.3554069 -2.450909,-6.0786365 -5.470776,-6.0786365 z"
     inkscape:connector-curvature="0" />
  <text
     xml:space="preserve"
     style="font-size:40px;font-style:normal;font-weight:normal;line-height:125%;letter-spacing:0px;word-spacing:0px;fill:#ffffff;fill-opacity:1;stroke:none;font-family:Sans"
     x="0.21572764"
     y="11.779856"
     id="text2985"
     sodipodi:linespacing="125%"><tspan
       sodipodi:role="line"
       id="tspan2987"
       x="0.21572764"
       y="11.779856"
       style="font-size:14px;fill:#ffffff">St</tspan></text>
  <rect
     style="fill:#000000"
     id="rect2989"
     width="2.9842303"
     height="6.8673253"
     x="9.1324644"
     y="14.687762" />
  <use
     x="0"
     y="0"
     xlink:href="#rect2989"
     id="use2991"
     transform="translate(3.9909586,0)"
     width="24"
     height="24" />
</svg>
